<mxfile host="Electron" modified="2024-06-22T10:15:21.498Z" agent="Mozilla/5.0 (X11; Linux x86_64) AppleWebKit/537.36 (KHTML, like Gecko) draw.io/24.2.5 Chrome/122.0.6261.156 Electron/29.3.3 Safari/537.36" etag="tZesYbjYNCKlntQpe2jg" version="24.2.5" type="device">
  <diagram name="Page-1" id="2eNb9FfrzjmOJ1AAvOrj">
    <mxGraphModel dx="459" dy="762" grid="1" gridSize="10" guides="1" tooltips="1" connect="1" arrows="1" fold="1" page="1" pageScale="1" pageWidth="850" pageHeight="1100" math="1" shadow="0">
      <root>
        <mxCell id="0" />
        <mxCell id="1" parent="0" />
        <mxCell id="2Jp_t64doU0okX8JOfeI-1" value="" style="shape=manualInput;whiteSpace=wrap;html=1;size=60;fillColor=#dae8fc;strokeColor=#6c8ebf;rotation=90;flipH=0;flipV=1;" vertex="1" parent="1">
          <mxGeometry x="155.75" y="645.25" width="90.5" height="80" as="geometry" />
        </mxCell>
        <mxCell id="2Jp_t64doU0okX8JOfeI-2" value="" style="endArrow=classic;html=1;rounded=0;flowAnimation=0;anchorPointDirection=1;strokeColor=#d79b00;fillColor=#ffe6cc;" edge="1" parent="1">
          <mxGeometry width="50" height="50" relative="1" as="geometry">
            <mxPoint x="121" y="760" as="sourcePoint" />
            <mxPoint x="321" y="760" as="targetPoint" />
          </mxGeometry>
        </mxCell>
        <mxCell id="2Jp_t64doU0okX8JOfeI-3" value="`x&#39;&#39;`" style="text;html=1;align=center;verticalAlign=middle;whiteSpace=wrap;rounded=0;fontSize=16;fontColor=#FFB570;textShadow=0;labelBorderColor=none;labelBackgroundColor=default;" vertex="1" parent="1">
          <mxGeometry x="311" y="744" width="60" height="30" as="geometry" />
        </mxCell>
        <mxCell id="2Jp_t64doU0okX8JOfeI-4" value="" style="endArrow=classic;html=1;rounded=0;flowAnimation=0;anchorPointDirection=1;strokeColor=#d79b00;fillColor=#ffe6cc;" edge="1" parent="1">
          <mxGeometry width="50" height="50" relative="1" as="geometry">
            <mxPoint x="161" y="800" as="sourcePoint" />
            <mxPoint x="160" y="560" as="targetPoint" />
          </mxGeometry>
        </mxCell>
        <mxCell id="2Jp_t64doU0okX8JOfeI-5" value="`y&#39;&#39;`" style="text;html=1;align=center;verticalAlign=middle;whiteSpace=wrap;rounded=0;fontSize=16;fontColor=#FFB570;textShadow=0;labelBorderColor=none;labelBackgroundColor=default;" vertex="1" parent="1">
          <mxGeometry x="130" y="530" width="60" height="30" as="geometry" />
        </mxCell>
        <mxCell id="2Jp_t64doU0okX8JOfeI-6" value="" style="endArrow=none;html=1;rounded=0;strokeColor=#7EA6E0;" edge="1" parent="1">
          <mxGeometry width="50" height="50" relative="1" as="geometry">
            <mxPoint x="161.0000000000001" y="730" as="sourcePoint" />
            <mxPoint x="221" y="640" as="targetPoint" />
            <Array as="points">
              <mxPoint x="140" y="760" />
              <mxPoint x="161" y="730" />
            </Array>
          </mxGeometry>
        </mxCell>
        <mxCell id="2Jp_t64doU0okX8JOfeI-7" value="" style="endArrow=classic;html=1;rounded=0;" edge="1" parent="1">
          <mxGeometry width="50" height="50" relative="1" as="geometry">
            <mxPoint x="281" y="640" as="sourcePoint" />
            <mxPoint x="121" y="640" as="targetPoint" />
          </mxGeometry>
        </mxCell>
        <mxCell id="2Jp_t64doU0okX8JOfeI-8" value="" style="endArrow=none;html=1;rounded=0;dashed=1;strokeColor=#7EA6E0;" edge="1" parent="1">
          <mxGeometry width="50" height="50" relative="1" as="geometry">
            <mxPoint x="221.0000000000001" y="640" as="sourcePoint" />
            <mxPoint x="241" y="610" as="targetPoint" />
            <Array as="points">
              <mxPoint x="221" y="640" />
            </Array>
          </mxGeometry>
        </mxCell>
        <mxCell id="2Jp_t64doU0okX8JOfeI-9" value="" style="rounded=0;whiteSpace=wrap;html=1;strokeColor=none;fillColor=#dae8fc;rotation=90;" vertex="1" parent="1">
          <mxGeometry x="186.5" y="705" width="29" height="80" as="geometry" />
        </mxCell>
        <mxCell id="2Jp_t64doU0okX8JOfeI-10" value="" style="endArrow=none;dashed=1;html=1;dashPattern=1 3;strokeWidth=2;rounded=0;" edge="1" parent="1">
          <mxGeometry width="50" height="50" relative="1" as="geometry">
            <mxPoint x="320" y="640.25" as="sourcePoint" />
            <mxPoint x="280" y="640" as="targetPoint" />
          </mxGeometry>
        </mxCell>
        <mxCell id="2Jp_t64doU0okX8JOfeI-11" value="" style="endArrow=classic;html=1;rounded=0;" edge="1" parent="1">
          <mxGeometry width="50" height="50" relative="1" as="geometry">
            <mxPoint x="240" y="560" as="sourcePoint" />
            <mxPoint x="240" y="800" as="targetPoint" />
          </mxGeometry>
        </mxCell>
        <mxCell id="2Jp_t64doU0okX8JOfeI-12" value="`x`" style="text;html=1;align=center;verticalAlign=middle;whiteSpace=wrap;rounded=0;fontSize=16;fontColor=default;" vertex="1" parent="1">
          <mxGeometry x="209.5" y="800" width="60" height="30" as="geometry" />
        </mxCell>
        <mxCell id="2Jp_t64doU0okX8JOfeI-13" value="`y&#39;`" style="text;html=1;align=center;verticalAlign=middle;whiteSpace=wrap;rounded=0;fontSize=16;" vertex="1" parent="1">
          <mxGeometry x="70" y="620" width="60" height="30" as="geometry" />
        </mxCell>
        <mxCell id="2Jp_t64doU0okX8JOfeI-14" value="" style="ellipse;whiteSpace=wrap;html=1;aspect=fixed;strokeColor=none;fillColor=#000000;" vertex="1" parent="1">
          <mxGeometry x="197" y="717.25" width="6" height="6" as="geometry" />
        </mxCell>
        <mxCell id="2Jp_t64doU0okX8JOfeI-15" value="" style="ellipse;whiteSpace=wrap;html=1;aspect=fixed;strokeColor=none;fillColor=#000000;" vertex="1" parent="1">
          <mxGeometry x="197" y="677" width="6" height="6" as="geometry" />
        </mxCell>
        <mxCell id="2Jp_t64doU0okX8JOfeI-16" value="" style="endArrow=none;dashed=1;html=1;dashPattern=1 3;strokeWidth=2;rounded=0;" edge="1" parent="1">
          <mxGeometry width="50" height="50" relative="1" as="geometry">
            <mxPoint x="320" y="680" as="sourcePoint" />
            <mxPoint x="120" y="679.71" as="targetPoint" />
          </mxGeometry>
        </mxCell>
        <mxCell id="2Jp_t64doU0okX8JOfeI-17" value="" style="endArrow=none;dashed=1;html=1;dashPattern=1 3;strokeWidth=2;rounded=0;" edge="1" parent="1">
          <mxGeometry width="50" height="50" relative="1" as="geometry">
            <mxPoint x="320" y="720.25" as="sourcePoint" />
            <mxPoint x="120" y="719.96" as="targetPoint" />
          </mxGeometry>
        </mxCell>
        <mxCell id="2Jp_t64doU0okX8JOfeI-18" value="" style="endArrow=none;dashed=1;html=1;dashPattern=1 3;strokeWidth=2;rounded=0;" edge="1" parent="1">
          <mxGeometry width="50" height="50" relative="1" as="geometry">
            <mxPoint x="320" y="600.29" as="sourcePoint" />
            <mxPoint x="120" y="600" as="targetPoint" />
          </mxGeometry>
        </mxCell>
        <mxCell id="2Jp_t64doU0okX8JOfeI-19" value="" style="verticalLabelPosition=bottom;verticalAlign=top;html=1;shape=mxgraph.basic.orthogonal_triangle;flipH=1;strokeColor=none;fillColor=#FFD966;rotation=90;flipV=1;" vertex="1" parent="1">
          <mxGeometry x="218" y="617.5" width="26" height="18" as="geometry" />
        </mxCell>
        <mxCell id="2Jp_t64doU0okX8JOfeI-20" value="" style="verticalLabelPosition=bottom;verticalAlign=top;html=1;shape=mxgraph.basic.orthogonal_triangle;flipH=1;strokeColor=none;fillColor=#B5739D;rotation=90;flipV=1;" vertex="1" parent="1">
          <mxGeometry x="136.75" y="735.75" width="28" height="19.5" as="geometry" />
        </mxCell>
        <mxCell id="2Jp_t64doU0okX8JOfeI-21" value="`y&#39;&#39; = \frac {m} {a%m} x&amp;nbsp;+ \frac {b%m} {m}`" style="text;html=1;align=center;verticalAlign=middle;whiteSpace=wrap;rounded=0;fontSize=16;fontColor=#7EA6E0;" vertex="1" parent="1">
          <mxGeometry x="255" y="560" width="170" height="30" as="geometry" />
        </mxCell>
        <mxCell id="2Jp_t64doU0okX8JOfeI-25" value="`x&#39;&#39; =&amp;nbsp;\frac {a%m} {m}`" style="text;html=1;align=center;verticalAlign=middle;whiteSpace=wrap;rounded=0;fontSize=16;fontColor=default;" vertex="1" parent="1">
          <mxGeometry x="240" y="520" width="60" height="30" as="geometry" />
        </mxCell>
      </root>
    </mxGraphModel>
  </diagram>
</mxfile>
